<svg xmlns="http://www.w3.org/2000/svg" width="20" height="20" viewBox="0 0 20 20"><defs><style>.a{fill:#545454;}</style></defs><path class="a" d="M13.125,30h13.75A3.128,3.128,0,0,0,30,26.875V13.125A3.128,3.128,0,0,0,26.875,10H13.125A3.128,3.128,0,0,0,10,13.125v13.75A3.128,3.128,0,0,0,13.125,30Zm13.75-1.25H19.634L25,23.384l3.733,3.733A1.877,1.877,0,0,1,26.875,28.75Zm1.875-7.134-.991-.991.991-.991ZM26.875,11.25a1.877,1.877,0,0,1,1.875,1.875v.991L25,17.866,18.384,11.25Zm-10.259,0,7.942,7.942a.625.625,0,0,0,.884,0l3.308-3.308v1.982l-2.317,2.317a.625.625,0,0,0,0,.884l2.317,2.317v1.982l-3.308-3.308a.625.625,0,0,0-.884,0L17.866,28.75H15.884l7.683-7.683a.625.625,0,0,0,0-.884L14.634,11.25Zm1.821,13.179-3.8-3.8,3.8-3.8,3.8,3.8Zm-7.187-11.3a1.877,1.877,0,0,1,1.634-1.858l4.67,4.67-6.3,6.3Zm0,10.884,2.5-2.5,3.8,3.8L14.116,28.75h-.991a1.877,1.877,0,0,1-1.875-1.875Z" transform="translate(-10 -10)"/></svg>