<svg xmlns="http://www.w3.org/2000/svg" width="25.015" height="24" viewBox="0 0 25.015 24"><defs><style>.a{fill:#fff;}.b,.h{fill:#121212;}.c{fill:#f19494;stroke-linejoin:bevel;}.c,.d,.e{stroke:#121212;stroke-linecap:round;}.c,.d{stroke-width:0.8px;}.d,.e{fill:none;}.f{fill:rgba(236,122,122,0.91);}.g,.h{stroke:none;}</style></defs><g transform="translate(-112.786 -376.759)"><g transform="translate(112.786 376.759)"><g class="a" transform="translate(0.014 3.241)"><path class="g" d="M 12.49993705749512 20.05927276611328 C 9.506986618041992 20.05927276611328 6.530326843261719 19.05757331848145 4.333207130432129 17.31101226806641 C 3.195286989212036 16.40644264221191 2.303696870803833 15.33994293212891 1.68321692943573 14.14113330841064 C 1.021266937255859 12.86221313476563 0.6856269240379333 11.45998287200928 0.6856269240379333 9.973382949829102 C 0.6856269240379333 8.389543533325195 1.03011691570282 6.97023344039917 1.709536910057068 5.754883289337158 C 2.361377000808716 4.588833332061768 3.340046882629395 3.576353311538696 4.618356704711914 2.745543241500854 C 5.066977024078369 2.452943325042725 5.199086666107178 1.849623203277588 5.480637073516846 0.3915832340717316 C 5.606307029724121 -0.2592467665672302 5.748756885528564 -0.9969267845153809 5.928386688232422 -1.592446804046631 C 6.120569229125977 -2.229605674743652 6.281081199645996 -2.454171657562256 6.34737491607666 -2.525451421737671 C 6.414865016937256 -2.494778871536255 6.574934959411621 -2.396106719970703 6.849186897277832 -2.083796739578247 C 7.142386913299561 -1.749916791915894 7.448836803436279 -1.306836724281311 7.74519681930542 -0.8783367872238159 C 8.451746940612793 0.1432332247495651 9.009817123413086 0.9501432180404663 9.768016815185547 0.9504032135009766 C 9.768110275268555 0.9504032731056213 9.768211364746094 0.9504032731056213 9.768304824829102 0.9504032731056213 C 9.827072143554688 0.9504032731056213 9.88580322265625 0.9452303647994995 9.943367004394531 0.9349961280822754 L 10.22281646728516 0.8960232138633728 C 11.25748729705811 0.7513332366943359 11.27725696563721 0.7485732436180115 12.49993705749512 0.7485732436180115 L 12.79999732971191 0.7483132481575012 L 13.00968647003174 0.748113214969635 C 13.70791721343994 0.748113214969635 13.77803707122803 0.7573732137680054 14.94941711425781 0.9121332168579102 L 15.1299877166748 0.9359785914421082 C 15.18296718597412 0.9448179006576538 15.23706531524658 0.949283242225647 15.29121685028076 0.949283242225647 C 16.02095603942871 0.949283242225647 16.58417701721191 0.1947732269763947 17.36369705200195 -0.8495067954063416 C 17.68681716918945 -1.282356739044189 18.02092742919922 -1.729956746101379 18.33664703369141 -2.069006681442261 C 18.62887382507324 -2.382826089859009 18.80022811889648 -2.488754749298096 18.87665176391602 -2.52405309677124 C 18.94096374511719 -2.447872400283813 19.08036994934082 -2.235318422317505 19.25086784362793 -1.692206740379333 C 19.42129707336426 -1.14928674697876 19.56155776977539 -0.4811867773532867 19.69719696044922 0.164923220872879 C 20.02612686157227 1.731713175773621 20.22279739379883 2.566143274307251 20.76001739501953 2.927613258361816 C 23.04355621337891 4.459022998809814 24.3006763458252 6.961053371429443 24.3006763458252 9.973382949829102 C 24.3006763458252 11.46032333374023 23.96566772460938 12.86271286010742 23.30496597290039 14.1416130065918 C 22.68558692932129 15.34050369262695 21.79551696777344 16.40694236755371 20.65948677062988 17.31132316589355 C 18.46579742431641 19.05768394470215 15.49174690246582 20.05927276611328 12.49993705749512 20.05927276611328 Z"/><path class="h" d="M 18.62689208984375 -1.337642669677734 C 18.37509155273438 -1.034204483032227 18.10762786865234 -0.6758937835693359 17.92465591430664 -0.4307765960693359 C 17.05715751647949 0.731353759765625 16.37195587158203 1.649283409118652 15.29121685028076 1.649283409118652 C 15.20313453674316 1.649283409118652 15.1149959564209 1.642350196838379 15.02836036682129 1.62863826751709 L 14.85769653320313 1.60610294342041 C 13.68428707122803 1.45107364654541 13.66186714172363 1.448113441467285 13.00968647003174 1.448113441467285 L 12.80095672607422 1.448312759399414 L 12.49993705749512 1.448573112487793 C 11.32596683502197 1.448573112487793 11.32596683502197 1.448573112487793 10.31975650787354 1.589282989501953 L 10.05139350891113 1.626699447631836 C 9.958088874816895 1.64244270324707 9.863140106201172 1.650403022766113 9.768266677856445 1.650403022766113 C 8.64289665222168 1.650403022766113 7.960046768188477 0.6630439758300781 7.169366836547852 -0.4802169799804688 C 7.014194488525391 -0.7045860290527344 6.791065216064453 -1.027219772338867 6.575071334838867 -1.310623168945313 C 6.562749862670898 -1.268123626708984 6.5501708984375 -1.223360061645508 6.53736686706543 -1.17625617980957 C 6.395647048950195 -0.6548976898193359 6.279886245727539 -0.05542755126953125 6.167936325073242 0.5243034362792969 C 5.876426696777344 2.033903121948242 5.715856552124023 2.865463256835938 4.99981689453125 3.332472801208496 C 2.567836761474609 4.913083076477051 1.385616302490234 7.085343360900879 1.385616302490234 9.973382949829102 C 1.385616302490234 13.36230278015137 3.225406646728516 15.53616333007813 4.768796920776367 16.76305389404297 C 6.844366073608398 18.41298294067383 9.662257194519043 19.35927391052246 12.49993705749512 19.35927391052246 C 15.33629703521729 19.35927391052246 18.15142631530762 18.4132137298584 20.22350692749023 16.76366233825684 C 21.76415634155273 15.53718280792236 23.60066604614258 13.36354351043701 23.60066604614258 9.973382949829102 C 23.60066604614258 8.515163421630859 23.29573631286621 7.201753616333008 22.6943359375 6.069663047790527 C 22.14566612243652 5.036832809448242 21.36398696899414 4.175493240356445 20.3692569732666 3.508382797241211 C 19.57112693786621 2.971373558044434 19.34874725341797 1.912123680114746 19.01213645935059 0.3087539672851563 C 18.91935729980469 -0.1331901550292969 18.77775382995605 -0.8076725006103516 18.62689208984375 -1.337642669677734 M 18.91485595703125 -3.240732192993164 C 18.95868682861328 -3.240732192993164 19.00190925598145 -3.235891342163086 19.04445648193359 -3.225847244262695 C 20.25472640991211 -2.940156936645508 20.39107704162598 1.835673332214355 21.15078735351563 2.346833229064941 C 23.43074607849121 3.875843048095703 25.00066757202148 6.451743125915527 25.00066757202148 9.973382949829102 C 25.00066757202148 16.62043380737305 18.75369644165039 20.75927352905273 12.49993705749512 20.75927352905273 C 6.246166229248047 20.75927352905273 -0.01438331604003906 16.62043380737305 -0.01438331604003906 9.973382949829102 C -0.01438331604003906 6.477673530578613 1.536266326904297 3.913823127746582 4.236896514892578 2.158613204956055 C 4.793777465820313 1.795403480529785 4.94993782043457 -2.964117050170898 6.196266174316406 -3.225847244262695 C 6.236583709716797 -3.23431396484375 6.277210235595703 -3.238407135009766 6.318052291870117 -3.238409042358398 C 7.510580062866211 -3.238471984863281 8.914312362670898 0.2504005432128906 9.76826286315918 0.2504005432128906 C 9.789176940917969 0.2504005432128906 9.809653282165527 0.2483234405517578 9.829896926879883 0.2440433502197266 C 11.17209720611572 0.05780410766601563 11.11834716796875 0.04857254028320313 12.49993705749512 0.04857254028320313 C 12.70156383514404 0.04857254028320313 12.86753368377686 0.04811286926269531 13.00968456268311 0.04811286926269531 C 13.79283809661865 0.04811286926269531 13.85765743255615 0.06208038330078125 15.23708724975586 0.2440433502197266 C 15.25470352172852 0.24755859375 15.27280807495117 0.2492866516113281 15.29121208190918 0.2492866516113281 C 16.12102699279785 0.2492866516113281 17.73799705505371 -3.240730285644531 18.91485595703125 -3.240732192993164 Z"/></g></g><path class="b" d="M.838,0c.442,0,.949.056.949.423s-.641.906-.949.906S-.123.79-.123.423.4,0,.838,0Z" transform="translate(124.528 389.731)"/><g transform="translate(123.038 390.813)"><path class="c" d="M-927.575,408.388s.732,1.939,1.478,1.939,1.508-1.939,1.508-1.939a8.391,8.391,0,0,1-.857-.806,4.56,4.56,0,0,1-.651-1.035,3.55,3.55,0,0,1-.584.968A11.66,11.66,0,0,1-927.575,408.388Z" transform="translate(928.46 -406.547)"/><path class="d" d="M-995.482,409.048a7.675,7.675,0,0,0,1.4-1.055,6.206,6.206,0,0,0,.976-1.321,5.989,5.989,0,0,0,.967,1.321,7.584,7.584,0,0,0,1.409,1.055" transform="translate(995.482 -406.613)"/></g><g transform="translate(131.421 389.729)"><path class="e" d="M-977.27,404.65a14.628,14.628,0,0,1,2.082-.363,13.255,13.255,0,0,1,2.051,0" transform="translate(977.27 -404.246)"/><path class="e" d="M-977.27,408.264a9.171,9.171,0,0,1,2.143.191,8.326,8.326,0,0,1,1.945.763" transform="translate(977.27 -406.361)"/></g><g transform="translate(115.205 389.729)"><path class="e" d="M-973.137,404.65a14.628,14.628,0,0,0-2.082-.363,13.255,13.255,0,0,0-2.051,0" transform="translate(977.27 -404.246)"/><path class="e" d="M-973.182,408.264a9.172,9.172,0,0,0-2.143.191,8.323,8.323,0,0,0-1.945.763" transform="translate(977.316 -406.361)"/></g><path class="b" d="M.893,0a1.069,1.069,0,0,1,.893,1.183,1.591,1.591,0,0,1-.186.723.8.8,0,0,1-.707.46A1.069,1.069,0,0,1,0,1.183,1.069,1.069,0,0,1,.893,0Z" transform="translate(121.081 386.782)"/><ellipse class="b" cx="0.894" cy="1.183" rx="0.894" ry="1.183" transform="translate(127.657 386.782)"/><ellipse class="f" cx="2" cy="1" rx="2" ry="1" transform="matrix(0.998, -0.07, 0.07, 0.998, 127.935, 389.684)"/><ellipse class="f" cx="2" cy="1" rx="2" ry="1" transform="matrix(-0.998, -0.07, 0.07, -0.998, 122.925, 391.679)"/></g></svg>