<svg xmlns="http://www.w3.org/2000/svg" width="17.512" height="20" viewBox="0 0 17.512 20"><defs><style>.a{fill:#545454;}</style></defs><g transform="translate(-42.817 -29.5)"><g transform="translate(42.817 29.5)"><path class="a" d="M50.012,48.768a.751.751,0,0,1-1.5,0,7.257,7.257,0,0,0-14.51,0,.751.751,0,0,1-1.5,0,8.759,8.759,0,0,1,17.512,0Zm-8.756-9.024a5.124,5.124,0,1,1,5.254-5.122A5.189,5.189,0,0,1,41.256,39.744Zm0-1.463A3.66,3.66,0,1,0,37.5,34.622,3.706,3.706,0,0,0,41.256,38.28Z" transform="translate(-32.5 -29.5)"/></g></g></svg>