<svg xmlns="http://www.w3.org/2000/svg" width="21.012" height="26.434" viewBox="0 0 21.012 26.434"><defs><style>.a,.b,.f,.g,.i{fill:none;}.a{stroke:#8f8f8f;}.b{stroke:#545454;stroke-width:1.5px;}.b,.e,.f,.g{stroke-linecap:round;}.c{fill:#fff;}.d,.j{fill:#121212;}.e{fill:#f19494;stroke-linejoin:bevel;}.e,.f,.g{stroke:#121212;}.e,.f{stroke-width:0.5px;}.g{stroke-width:0.7px;}.h,.j{stroke:none;}</style></defs><g class="a" transform="translate(6.757 24.434)"><ellipse class="h" cx="4" cy="1" rx="4" ry="1"/><ellipse class="i" cx="4" cy="1" rx="3.5" ry="0.5"/></g><line class="b" y1="6" transform="translate(10.698 19.221)"/><g class="c" transform="translate(0.014 3.241)"><path class="h" d="M 10.49747085571289 16.51894569396973 C 7.941730976104736 16.51894569396973 5.398750782012939 15.66264533996582 3.520550727844238 14.16961574554443 C 2.543820858001709 13.39317607879639 1.778090715408325 12.47689533233643 1.244620800018311 11.44621562957764 C 0.6746307611465454 10.34496593475342 0.3856207430362701 9.138035774230957 0.3856207430362701 7.858945846557617 C 0.3856207430362701 5.187275409698486 1.525840759277344 3.091565608978271 3.774610757827759 1.630035638809204 C 4.086300849914551 1.426745653152466 4.196710586547852 0.9143456220626831 4.416780948638916 -0.2253043651580811 C 4.534290790557861 -0.8338343501091003 4.667480945587158 -1.523574352264404 4.843960762023926 -2.057854413986206 C 5.084790706634521 -2.786994457244873 5.276630878448486 -2.835084438323975 5.284680843353271 -2.836774349212646 C 5.291130542755127 -2.83812427520752 5.297700881958008 -2.838784456253052 5.304770946502686 -2.838784456253052 C 5.637680530548096 -2.838784456253052 6.276490688323975 -1.915144324302673 6.658170700073242 -1.363294363021851 C 7.220350742340088 -0.5504443645477295 7.664400577545166 0.09158563613891602 8.202771186828613 0.0917656421661377 C 8.202864646911621 0.09176567941904068 8.202964782714844 0.09176567941904068 8.203058242797852 0.09176567941904068 C 8.242534637451172 0.09176567941904068 8.281965255737305 0.0881836861371994 8.320518493652344 0.08111151307821274 L 8.558640480041504 0.04790563881397247 C 9.42357063293457 -0.07304435968399048 9.457330703735352 -0.0777643620967865 10.49747085571289 -0.0777643620967865 L 10.74920082092285 -0.07798436284065247 L 10.92555046081543 -0.07815436273813248 C 11.52448081970215 -0.07815436273813248 11.5841007232666 -0.07027436047792435 12.57993030548096 0.06128563731908798 L 12.73442935943604 0.08167864382266998 C 12.76972961425781 0.0877518355846405 12.80588054656982 0.0908256396651268 12.8421106338501 0.0908256396651268 C 13.36082077026367 0.0908256396651268 13.81026077270508 -0.5112643837928772 14.4323205947876 -1.344594359397888 C 14.7221508026123 -1.732864379882813 15.02184104919434 -2.134344339370728 15.3073205947876 -2.431884288787842 C 15.67130088806152 -2.811254262924194 15.84221076965332 -2.840734243392944 15.88592052459717 -2.840734243392944 C 15.89219093322754 -2.840734243392944 15.89774036407471 -2.840144395828247 15.90288066864014 -2.838934421539307 C 15.90459060668945 -2.838534355163574 16.0759105682373 -2.791204452514648 16.29938125610352 -2.142774343490601 C 16.46749114990234 -1.655004382133484 16.59944152832031 -1.026484370231628 16.72705078125 -0.4186643660068512 C 16.98558044433594 0.8127656579017639 17.15084075927734 1.522255659103394 17.540771484375 1.784615635871887 C 19.51238059997559 3.106845617294312 20.59792137145996 5.263965606689453 20.59792137145996 7.858945846557617 C 20.59792137145996 9.138276100158691 20.30946159362793 10.34529590606689 19.74056053161621 11.44648551940918 C 19.20804023742676 12.47724533081055 18.44360160827637 13.39350605010986 17.46847152709961 14.16978549957275 C 15.59313106536865 15.66270542144775 13.05230045318604 16.51894569396973 10.49747085571289 16.51894569396973 Z"/><path class="j" d="M 15.7915096282959 -2.345414161682129 C 15.48488426208496 -2.085963249206543 15.00507545471191 -1.44318962097168 14.75286102294922 -1.105314254760742 C 14.06116104125977 -0.1786842346191406 13.56139087677002 0.4908256530761719 12.8421106338501 0.4908256530761719 C 12.78622531890869 0.4908256530761719 12.73033905029297 0.4863080978393555 12.67550373077393 0.4773750305175781 L 12.52746105194092 0.4578256607055664 C 11.53683090209961 0.3269557952880859 11.49816036224365 0.3218460083007813 10.92555046081543 0.3218460083007813 L 10.74975109100342 0.3220157623291016 L 10.49747085571289 0.3222360610961914 C 9.485170364379883 0.3222360610961914 9.468831062316895 0.3245153427124023 8.614040374755859 0.4440555572509766 L 8.382950782775879 0.4762811660766602 C 8.32371997833252 0.4865617752075195 8.263322830200195 0.4917659759521484 8.202910423278809 0.4917659759521484 C 7.454730987548828 0.4917659759521484 6.957990646362305 -0.2264747619628906 6.329100608825684 -1.135804176330566 C 6.102521896362305 -1.463423728942871 5.672126770019531 -2.085718154907227 5.388618469238281 -2.342703819274902 C 5.328948020935059 -2.225981712341309 5.247064590454102 -2.029561042785645 5.15471076965332 -1.707454681396484 C 5.018950462341309 -1.234014511108398 4.907690048217773 -0.6578245162963867 4.809520721435547 -0.1494646072387695 C 4.576810836791992 1.055665969848633 4.460000991821289 1.660555839538574 3.992589950561523 1.965425491333008 C 2.947990417480469 2.644335746765137 2.149311065673828 3.469805717468262 1.618740081787109 4.418905258178711 C 1.065919876098633 5.407805442810059 0.7856216430664063 6.565195560455322 0.7856216430664063 7.858945846557617 C 0.7856216430664063 10.85553550720215 2.40825080871582 12.77441596984863 3.769460678100586 13.85649585723877 C 5.578200340270996 15.29431533813477 8.030460357666016 16.11894607543945 10.49747085571289 16.11894607543945 C 15.26578140258789 16.11894607543945 20.19791984558105 13.02930545806885 20.19791984558105 7.858945846557617 C 20.19791984558105 5.401556015014648 19.17532157897949 3.362415313720703 17.31748008728027 2.116485595703125 C 16.79795074462891 1.766935348510742 16.62351036071777 1.034985542297363 16.33558082580566 -0.3364744186401367 C 16.2227783203125 -0.8737821578979492 16.00551986694336 -1.908580780029297 15.7915096282959 -2.345414161682129 M 15.88591766357422 -3.240737915039063 C 15.92273712158203 -3.240737915039063 15.95904159545898 -3.236671447753906 15.99478054046631 -3.228235244750977 C 17.01138114929199 -2.988254547119141 17.12592124938965 1.023375511169434 17.76407051086426 1.45274543762207 C 19.67920112609863 2.737095832824707 20.99792098999023 4.900815963745117 20.99792098999023 7.858945846557617 C 20.99792098999023 13.44237518310547 15.7505407333374 16.9189453125 10.49747085571289 16.9189453125 C 5.244400978088379 16.9189453125 -0.01437950134277344 13.44237518310547 -0.01437950134277344 7.858945846557617 C -0.01437950134277344 4.922595977783203 1.288141250610352 2.76899528503418 3.556631088256836 1.294645309448242 C 4.024410247802734 0.9895458221435547 4.155580520629883 -3.008384704589844 5.202470779418945 -3.228235244750977 C 5.236336708068848 -3.235345840454102 5.270462989807129 -3.238784790039063 5.304770469665527 -3.238786697387695 C 6.306484222412109 -3.238838195800781 7.485599517822266 -0.3082332611083984 8.202906608581543 -0.3082332611083984 C 8.220474243164063 -0.3082332611083984 8.237676620483398 -0.3099794387817383 8.254680633544922 -0.3135747909545898 C 9.382101058959961 -0.4700145721435547 9.336950302124023 -0.4777641296386719 10.49747085571289 -0.4777641296386719 C 10.66683483123779 -0.4777641296386719 10.80614185333252 -0.4781513214111328 10.92554664611816 -0.4781513214111328 C 11.58338737487793 -0.4781513214111328 11.6379451751709 -0.4664125442504883 12.79664039611816 -0.3135747909545898 C 12.81143856048584 -0.3106212615966797 12.82664585113525 -0.3091697692871094 12.84210586547852 -0.3091697692871094 C 13.539137840271 -0.3091697692871094 14.89736747741699 -3.240734100341797 15.88591766357422 -3.240737915039063 Z"/></g><path class="d" d="M.537,0c.3,0,.651.039.651.291S.748.912.537.912s-.66-.37-.66-.622S.233,0,.537,0Z" transform="translate(10.03 11.013)"/><g transform="translate(8.98 12.208)"><path class="e" d="M-927.575,407.811s.5,1.331,1.015,1.331,1.035-1.331,1.035-1.331a5.758,5.758,0,0,1-.589-.553,3.128,3.128,0,0,1-.447-.71,2.438,2.438,0,0,1-.4.665A8,8,0,0,1-927.575,407.811Z" transform="translate(928.182 -406.547)"/><path class="f" d="M-995.482,408.3a5.271,5.271,0,0,0,.961-.724,4.262,4.262,0,0,0,.67-.907,4.117,4.117,0,0,0,.664.907,5.2,5.2,0,0,0,.967.724" transform="translate(995.482 -406.631)"/></g><g transform="translate(16.632 11.163)"><path class="g" d="M-977.27,404.523a10.047,10.047,0,0,1,1.43-.25,9.1,9.1,0,0,1,1.408,0" transform="translate(977.27 -404.246)"/><path class="g" d="M-977.27,408.263a6.3,6.3,0,0,1,1.471.131,5.712,5.712,0,0,1,1.335.524" transform="translate(977.27 -406.956)"/></g><g transform="translate(1.661 11.163)"><path class="g" d="M-974.432,404.523a10.047,10.047,0,0,0-1.429-.25,9.1,9.1,0,0,0-1.409,0" transform="translate(977.27 -404.246)"/><path class="g" d="M-974.464,408.263a6.3,6.3,0,0,0-1.472.131,5.716,5.716,0,0,0-1.335.524" transform="translate(977.302 -406.956)"/></g><path class="d" d="M.613,0a.734.734,0,0,1,.613.812,1.092,1.092,0,0,1-.128.5.552.552,0,0,1-.486.316A.734.734,0,0,1,0,.812.734.734,0,0,1,.613,0Z" transform="translate(7.065 8.587)"/><ellipse class="d" cx="0.614" cy="0.812" rx="0.614" ry="0.812" transform="translate(12.668 8.587)"/></svg>