<svg xmlns="http://www.w3.org/2000/svg" width="71" height="37" viewBox="0 0 71 37"><defs><style>.a{fill:#121212;font-size:25px;font-family:SpoqaHanSans-Bold, SpoqaHanSans;font-weight:700;}.b{fill:#1972f8;}.c{fill:none;stroke:#d4d4d4;stroke-linecap:round;stroke-width:0.4px;}.d{fill:#fff;}</style></defs><g transform="translate(-48.148 -216.877)"><text class="a" transform="translate(48.148 245.877)"><tspan x="0" y="0">tastie</tspan></text><g transform="translate(95.197 221.338)"><path class="b" d="M4.188.759A7.638,7.638,0,0,0,7.554.066a16.426,16.426,0,0,1,.771,4.655A4.1,4.1,0,0,1,4.163,8.883,4.179,4.179,0,0,1,0,4.721,15.284,15.284,0,0,1,.856,0,6.883,6.883,0,0,0,4.188.759Z" transform="translate(1.022)"/><g transform="translate(6.279 3.772)"><path class="c" d="M-590.34,260.057a8.357,8.357,0,0,1,4.065-1.176" transform="translate(590.34 -258.869)"/><path class="c" d="M.589-1.175A8.753,8.753,0,0,1,4.738-1" transform="translate(-0.549 2.577)"/><path class="c" d="M-590.2,272.344a6.694,6.694,0,0,1,3.7,1.716" transform="translate(590.219 -270.713)"/></g><g transform="translate(0 3.772)"><path class="c" d="M-586.274,260.057a8.357,8.357,0,0,0-4.065-1.176" transform="translate(590.464 -258.869)"/><path class="c" d="M4.738-1.175A8.753,8.753,0,0,0,.589-1" transform="translate(-0.589 2.577)"/><path class="c" d="M-586.5,272.344a6.694,6.694,0,0,0-3.7,1.716" transform="translate(590.671 -270.713)"/></g><path class="d" d="M.574,0c.321,0,.689.041.689.307S.8.965.574.965s-.7-.391-.7-.657S.254,0,.574,0Z" transform="translate(4.668 4.76)"/></g></g></svg>